<svg xmlns="http://www.w3.org/2000/svg" viewBox="0 0 275.83 152.76"><defs><style>.cls-1{fill:#eca1b6;}</style></defs><g id="Layer_2" data-name="Layer 2"><g id="Layer_2-2" data-name="Layer 2"><path class="cls-1" d="M88.64,8.6c.55-3.06,1.14-5,1.77-5.77s2.08-1.18,4.36-1.18H114c.94,0,1.41.82,1.41,2.47a21.22,21.22,0,0,1-1.29,5.72A64.9,64.9,0,0,0,112,18a77.54,77.54,0,0,0-1.18,14.14q0,4.13-.06,8.07c0,2.63-.06,5.17-.06,7.6v4.89c0,1.29.16,3.4.47,6.3l1.65,11.07L113,72l.47,3.3.94,5.3.59,3.06.12.83c.23,1.33,0,2-.71,2H90.17q-.7,0-1.35-1.41a24.9,24.9,0,0,1-1.36-5.19l-.35-2.94L86.4,66.44l-.12-2.12q0-6.6-.17-15.72t-.18-9.25l.24-4.83.35-7.66a72.41,72.41,0,0,1,.35-7.66c.4-2.28.63-3.84.71-4.71Z"/><path class="cls-1" d="M129.4,9.78c.39-3.14,1.24-5.28,2.53-6.42s3.48-1.71,6.54-1.71h11.19a7.1,7.1,0,0,1,3.25.88A18,18,0,0,1,157,5.77a40.07,40.07,0,0,1,3.83,4.89q2.41,3.48,4,5.95t3.24,5.3q1.65,2.84,3.42,6.24,1.17,2.37,2.24,4.54c.7,1.46,1.45,3.16,2.24,5.13a45.59,45.59,0,0,0,.7-7.66,71.72,71.72,0,0,0-.59-8l-.47-3.77-.35-2.83-1.06-6.48a30.36,30.36,0,0,1-.94-5.89c0-1,.27-1.53.82-1.53h19.44q.94,0,1.53,1.71A26.58,26.58,0,0,1,196,6.83c.24,1.18.49,3.12.77,5.83s.47,4.58.59,5.6.29,3.57.53,7.66.35,8.32.35,12.72V52.89L198.08,55l-.47,12.14q0,11.07-1.35,15.2c-.91,2.75-2.06,4.12-3.48,4.12H173a1.67,1.67,0,0,1-1.41-.88,17.53,17.53,0,0,1-1.53-3.72l-.59-1.64L167.34,73a131.12,131.12,0,0,0-4.72-13.67L159.56,52a109.8,109.8,0,0,0-5.3-10.48,24.44,24.44,0,0,0-4.71-5.54v5.42q0,11.65.47,16.85c0,.15.39,3.14,1.18,9l1.06,8.13.11.82a42.07,42.07,0,0,1,.83,4.71,30.54,30.54,0,0,1,.23,3.19c0,1.64-.39,2.47-1.17,2.47h-20a3.38,3.38,0,0,1-3.3-2.59,31.83,31.83,0,0,1-.76-5.07q-.3-3.28-.3-8.6l-.59-13.55V38.52q0-6.83.59-14t.59-8.36l.12-.47Z"/><path class="cls-1" d="M271,57.72l1.06-2.47a8.7,8.7,0,0,1,2.77,3.53,13.21,13.21,0,0,1,1,5.42,23.27,23.27,0,0,1-.35,3.89,21.12,21.12,0,0,1-6.89,13.2q-5.83,5.29-15.73,6.83a20.94,20.94,0,0,1-3.59.23c-1.53,0-2.81,0-3.83.12q-10.49,0-16.67-3A31.51,31.51,0,0,1,217.4,75.4l-2.12-3.18a46.31,46.31,0,0,1-6.36-19.56q-.46-4.36-.53-6.13c0-1.17-.06-2.12-.06-2.82q0-14.49,6-24.63Q220,9.44,227.71,4.71T246.85,0h4.07a23.37,23.37,0,0,1,4,.35,31.68,31.68,0,0,1,9.48,2.89,13.44,13.44,0,0,1,5.24,5,10.89,10.89,0,0,1,1.53,5.65,11.85,11.85,0,0,1-2.47,7.3A14,14,0,0,1,261.58,26l-2,.48a27.36,27.36,0,0,1-3.65.35c-1.18,0-1.91-.31-2.18-.94a14.2,14.2,0,0,1-.42-4.48,3.4,3.4,0,0,0-1.59-2.89,7.15,7.15,0,0,0-4.18-1.11,10.83,10.83,0,0,0-3.65.58,12.41,12.41,0,0,0-7,5.78q-2.9,4.59-4.07,12.84a41.85,41.85,0,0,0-.35,5.3v1.77A29.85,29.85,0,0,0,234.07,54a25.86,25.86,0,0,0,4.3,7.66,19.67,19.67,0,0,0,11.07,6.72,22.86,22.86,0,0,0,4.72.59Q265,68.92,271,57.72Z"/><path class="cls-1" d="M72.59,30.37a67.33,67.33,0,0,0-7.88-13c-.41-.53-.66-1-.2-1.55s.88,0,1.26.25a2.58,2.58,0,0,0,2.84.18,2.8,2.8,0,0,0,1.47-2.82c-.14-4.77-4-6.94-8.28-4.83-1.19.59-2,2.35-3.35,1.88C57.26,10.1,56.4,8.8,55.32,8,50.84,4.58,46,2,40.23,1.69,32.4,1.22,26.09,4.64,20.4,9.54c-1.14,1-1.69,1.34-3.09.21-4.58-3.7-8.5-2.37-9.7,3.07a3,3,0,0,0,1.12,3.3,2.55,2.55,0,0,0,3,.06c.4-.25.68-1,1.29-.42s.31,1.09-.16,1.69a66,66,0,0,0-5,7.47C.82,37-2,49.68,1.47,63.43,4,73.47,9.55,81,19.31,85c6.25,2.6,12.82,3.29,18.91,3.46a57.87,57.87,0,0,0,16.61-2.2A29.56,29.56,0,0,0,71.31,74.51c4.37-6.43,5.74-13.72,6.21-21.25C78,45.19,75.9,37.63,72.59,30.37ZM51.92,49.73c-3.79,2-7.72,2.89-14.22,2.89A30.91,30.91,0,0,1,26.76,50.3,13,13,0,0,1,21,31.16,27.54,27.54,0,0,1,37.91,19.22a6.65,6.65,0,0,1,4.11.6c6.55,2.65,12.19,6.48,15.41,13A12.87,12.87,0,0,1,51.92,49.73Z"/><path class="cls-1" d="M44.76,42.72c-2.71,0-4.23-1.44-4.39-4.16a9.58,9.58,0,0,1,1.81-6.46c1.27-1.72,3-1.93,4.53-.59,2.06,1.86,3,6.28,1.95,8.8A3.72,3.72,0,0,1,44.76,42.72Z"/><path class="cls-1" d="M28,38a8.31,8.31,0,0,1,1.78-5.92c1.38-1.86,3.54-2,4.9-.12a9,9,0,0,1,1.71,8c-.53,1.94-2.3,2.94-4.75,2.79A3.86,3.86,0,0,1,28,39.24,7.57,7.57,0,0,1,28,38Z"/><path class="cls-1" d="M19.36,152.76q-9.09,0-14-3.72A11.53,11.53,0,0,1,.4,139.4a9.44,9.44,0,0,1,.07-1c0-.37.07-.67.07-.89a4.51,4.51,0,0,1,.23-1.05c.11-.31.18-.55.23-.73a10.17,10.17,0,0,1,1.08-2.33,2.6,2.6,0,0,1,1-.92,2.07,2.07,0,0,1,.73-.23,1,1,0,0,1,.92.42,5,5,0,0,1,.33.63c.08.18.26.61.52,1.32l.13.52.27,1,.13.59a2.22,2.22,0,0,0,.53,1,15.51,15.51,0,0,0,1.77,1.67,12.09,12.09,0,0,0,6.65,3.1,6.67,6.67,0,0,0,.86.06h.85a9.61,9.61,0,0,0,2.57-.26A5,5,0,0,0,23,137.49a5.79,5.79,0,0,0-.2-1.51,4.56,4.56,0,0,0-.72-1.45,6.25,6.25,0,0,0-1.91-1.77,30.52,30.52,0,0,0-4.48-2l-1.51-.59a55.27,55.27,0,0,1-5.92-2.93,11,11,0,0,1-2.9-2.6,15.43,15.43,0,0,1-2.43-4,10.93,10.93,0,0,1-.79-4.05,9.55,9.55,0,0,1,.06-1,6.87,6.87,0,0,0,.07-.89,11.38,11.38,0,0,1,4-7.37q3.39-2.83,10.17-3.88a16.63,16.63,0,0,1,1.78-.2c.66,0,1.29-.07,1.91-.07a20.12,20.12,0,0,1,5.46.73,30.16,30.16,0,0,1,7,2.79,3.67,3.67,0,0,1,2,3.06,7.71,7.71,0,0,1-1.25,3.56c-1.27,2.19-2.33,3.29-3.16,3.29a1.71,1.71,0,0,1-1-.36,11.17,11.17,0,0,1-1.28-1.16A7.82,7.82,0,0,0,25,113a12.13,12.13,0,0,0-4.22-1,6.37,6.37,0,0,0-3.35.92,4,4,0,0,0-2.17,3.62,3.93,3.93,0,0,0,1.38,2.89,10.62,10.62,0,0,0,3.29,2l2.63,1.12.79.33,2.5,1,1.12.39,1.65.73a13.33,13.33,0,0,1,1.74,1,11.52,11.52,0,0,1,1.41,1.09q5.07,4.28,5.07,9.8A13.92,13.92,0,0,1,36.7,139c-.11.72-.21,1.28-.3,1.67a13.85,13.85,0,0,1-1.48,3.95A15.79,15.79,0,0,1,32,148.09a16,16,0,0,1-4.47,3,17.88,17.88,0,0,1-3.82,1.28A20.2,20.2,0,0,1,19.36,152.76Z"/><path class="cls-1" d="M63.78,144.73a28.86,28.86,0,0,1,1.31,5.93c0,.7-.28,1.05-.85,1.05H51.4c-.65,0-1.2-.55-1.64-1.65a20,20,0,0,1-.92-7l-.2-7,.53-7c.13-1.63.26-3,.39-4.25s.27-2.14.4-2.8c.43-2.06.73-3.64.89-4.73a6.68,6.68,0,0,0,.09-2.11,1.44,1.44,0,0,0-.62-1,1.31,1.31,0,0,0-1.15-.13,7.61,7.61,0,0,0-2.11.92l-2.57,1.65-2.69,1.84-1.32,1.12-.13.13a3.6,3.6,0,0,1-1.65.59c-.08-.35-.17-.7-.26-1a5.29,5.29,0,0,1-.07-.92,19.33,19.33,0,0,1,.73-4l.59-2.37.33-1.18c.75-2.77,1.62-4.51,2.63-5.23s3.56-1.35,7.64-1.88l2.46-.2c.6,0,1.7-.06,3.33-.06h4.6c1.1,0,2.15,0,3.16.13s2,.2,2.83.33q6.18,1,8.06,2.07a3.74,3.74,0,0,1,1.88,3.59,17.36,17.36,0,0,1-.33,2.89L75.62,116a19.61,19.61,0,0,1-.49,2.33,3.89,3.89,0,0,1-.56,1.19,1.34,1.34,0,0,1-1.12.43,1.3,1.3,0,0,1-1-.47A10.55,10.55,0,0,1,70.88,117a5.64,5.64,0,0,0-.79-1.28,18.31,18.31,0,0,0-1.48-1.55,3.11,3.11,0,0,0-2.2-1,2.26,2.26,0,0,0-1.88.89,4.69,4.69,0,0,0-.89,2.14L63,119.73c-.18,1.66-.32,3.46-.43,5.39s-.17,3.8-.17,5.6v1.71l.14,2.83a36.56,36.56,0,0,0,.46,6.05A27.74,27.74,0,0,0,63.78,144.73Z"/><path class="cls-1" d="M80.75,109.59a17.82,17.82,0,0,1,1.09-4.37,1.93,1.93,0,0,1,1.87-.89h10.6c.53,0,.79.46.79,1.38a23.76,23.76,0,0,1-1.19,5.73c0,.13-.14.53-.29,1.21s-.36,1.81-.63,3.39a64.51,64.51,0,0,0-.72,8.95,36,36,0,0,0,.53,6.45q1.38,7.5,5.72,7.5a7.19,7.19,0,0,0,2.24-.39,5.09,5.09,0,0,0,2.73-2.08A14.09,14.09,0,0,0,105,131.7a38.55,38.55,0,0,0,.16-4c0-2,.06-3.85.1-5.43L105,118a34,34,0,0,0-.39-5.47c-.31-1.31-.51-2.17-.6-2.56a22.4,22.4,0,0,1-.92-4.67c0-.66.26-1,.79-1h10.66a1.86,1.86,0,0,1,1.32.59,6.12,6.12,0,0,1,1.15,2.17,21.58,21.58,0,0,1,.89,4.44,56.5,56.5,0,0,1,.33,6.42v4q0,1.94.06,3.72v2.43a7.55,7.55,0,0,0-.13,1.12,63.84,63.84,0,0,1-.95,7.27,29.54,29.54,0,0,1-1.35,4.64,19.41,19.41,0,0,1-5.86,8.09,18.57,18.57,0,0,1-9.28,3.36,17.84,17.84,0,0,1-2.37.13H96.48a17.86,17.86,0,0,1-10.2-4.14,18.48,18.48,0,0,1-5.2-7.31,33.44,33.44,0,0,1-2-12.3L79,126.7l.13-4.21.14-1.58.32-2.76.33-2.9.14-1.38.26-1.64Z"/><path class="cls-1" d="M126.09,113.48q.52-6.39,1.35-7.77c.55-.92,1.88-1.38,4-1.38H145a13.86,13.86,0,0,1,6.52,2,16.08,16.08,0,0,1,3.82,3.12,33.41,33.41,0,0,1,3.81,5.3l1.39,2.5a32.13,32.13,0,0,1,2.56,8.29,48.79,48.79,0,0,1,.79,8.36A24.13,24.13,0,0,1,162.09,144a12.55,12.55,0,0,1-5.2,5.92,20.34,20.34,0,0,1-3.06,1.35,6.88,6.88,0,0,1-2.14.43H129.12c-.44,0-.82-.3-1.15-.89a15.35,15.35,0,0,1-1.09-3.49,52.32,52.32,0,0,1-.95-6.12,73.34,73.34,0,0,1-.36-7.47c0-1.75,0-3.94-.07-6.58s-.07-4.45-.07-5.46l.07-.53Zm13,11.78.13,5.33.59,5.19a25.08,25.08,0,0,0,.63,3.89,4.81,4.81,0,0,0,.88,1.9,4.11,4.11,0,0,0,3.16,1.58,4.19,4.19,0,0,0,3.62-2.43,17.53,17.53,0,0,0,1.78-4.48,17.93,17.93,0,0,0,.53-4.8c0-1-.07-2.08-.2-3.36l-.33-2.1a25,25,0,0,0-1.58-5.73,17.65,17.65,0,0,0-1.58-3.48,19.52,19.52,0,0,0-1.55-2.24,4.13,4.13,0,0,0-1.25-1,3.14,3.14,0,0,0-1.48-.36,2.48,2.48,0,0,0-2.43,1.58,6,6,0,0,0-.56,1.84,22,22,0,0,0-.17,3.16Z"/><path class="cls-1" d="M171.5,108.21a8.44,8.44,0,0,1,1-3.22q.52-.66,2.43-.66h10.73c.52,0,.79.46.79,1.38a12,12,0,0,1-.73,3.19,37,37,0,0,0-1.18,4.58,43.29,43.29,0,0,0-.66,7.89c0,1.54,0,3,0,4.51s0,2.88,0,4.24v2.74c0,.72.09,1.89.27,3.52l.92,6.18.13,1.05.26,1.85.53,3,.33,1.71.06.46c.14.75,0,1.12-.39,1.12H172.35c-.26,0-.51-.26-.75-.79a14.07,14.07,0,0,1-.76-2.9l-.2-1.64-.39-5.86-.07-1.18q0-3.69-.1-8.79c-.06-3.4-.1-5.12-.1-5.16l.14-2.7.19-4.28a39.94,39.94,0,0,1,.2-4.28c.22-1.27.35-2.15.4-2.63Z"/><path class="cls-1" d="M219.93,151.58l-2.3.13H202.49a9,9,0,0,1-7.3-3.69q-3.23-4-3.95-11.38c0-.7-.08-1.32-.1-1.84s0-1,0-1.25a35,35,0,0,1,1.51-10.07,47.61,47.61,0,0,1,2.44-6.45,28.75,28.75,0,0,1,2.56-4.61,29.55,29.55,0,0,1,4.28-4.9,16.31,16.31,0,0,1,4.28-2.86,14.77,14.77,0,0,1,6-1.45,13.14,13.14,0,0,1,5.2,1.12,21.33,21.33,0,0,1,5.46,3.55,28.08,28.08,0,0,1,5.93,7.83,19.59,19.59,0,0,1,1.38,3.1c.44,1.22.85,2.63,1.25,4.21a49.45,49.45,0,0,1,1.64,11.78q0,7.63-3.45,11.81A14.36,14.36,0,0,1,219.93,151.58ZM204.6,133.15q0,4.28,1.71,6.06t5.53,1.77c2.45,0,4.19-.39,5.2-1.18s1.77-2.37,2.3-4.74a8.32,8.32,0,0,0,.26-2.3,39.39,39.39,0,0,0-1.12-7.57c-.17-.66-.31-1.24-.42-1.75a16.49,16.49,0,0,0-.69-2.13c-.62-1.67-1-2.74-1.25-3.23s-.69-1.31-1.39-2.5a3.12,3.12,0,0,0-2.5-1.58,3.21,3.21,0,0,0-2.63,1.58,18.65,18.65,0,0,0-1.71,2.83,37.83,37.83,0,0,0-1.51,4,32.15,32.15,0,0,0-1.35,5.43A33.49,33.49,0,0,0,204.6,133.15Z"/></g></g></svg>