<svg xmlns="http://www.w3.org/2000/svg" viewBox="0 0 363.02 69.75"><defs><style>.cls-1{fill:#192e5f;}.cls-2{fill:#27a2ab;}.cls-3{fill:#29afad;}</style></defs><g id="Layer_2" data-name="Layer 2"><g id="Layer_1-2" data-name="Layer 1"><path class="cls-1" d="M135.84,56.65A21.09,21.09,0,0,1,127,55a20.47,20.47,0,0,1-6.76-5.11l6-6a15.14,15.14,0,0,0,4.46,3.57,12.16,12.16,0,0,0,5.7,1.27A8.34,8.34,0,0,0,141,47.67a3.36,3.36,0,0,0,1.62-3,3.74,3.74,0,0,0-1.06-2.77,9.32,9.32,0,0,0-2.81-1.84q-1.74-.76-3.84-1.47c-1.4-.47-2.79-1-4.16-1.63A17.49,17.49,0,0,1,127,34.7a10.37,10.37,0,0,1-2.81-3.49,11.64,11.64,0,0,1-1.06-5.29,11.58,11.58,0,0,1,1.86-6.61,11.72,11.72,0,0,1,5.17-4.23,18.9,18.9,0,0,1,7.62-1.45,20.41,20.41,0,0,1,8,1.54,16.34,16.34,0,0,1,6,4.2l-6,6a14,14,0,0,0-3.81-2.89,9.68,9.68,0,0,0-4.34-1,7,7,0,0,0-3.84.92A3,3,0,0,0,132.29,25a3.33,3.33,0,0,0,1.07,2.57,9.12,9.12,0,0,0,2.8,1.68c1.16.47,2.44.95,3.84,1.42a43,43,0,0,1,4.17,1.65,17.12,17.12,0,0,1,3.81,2.4,10.66,10.66,0,0,1,2.81,3.66,12.58,12.58,0,0,1,1.06,5.47,11.32,11.32,0,0,1-4.25,9.36Q143.34,56.66,135.84,56.65Z"/><path class="cls-1" d="M168.75,56.59a13,13,0,0,1-7.06-2,13.85,13.85,0,0,1-4.91-5.32,16,16,0,0,1-1.8-7.68,16.07,16.07,0,0,1,1.8-7.68,13.85,13.85,0,0,1,4.91-5.32,13,13,0,0,1,7.06-1.95A12,12,0,0,1,174,27.81a10.28,10.28,0,0,1,3.81,3.11,8.4,8.4,0,0,1,1.65,4.52v12.4a8.5,8.5,0,0,1-1.62,4.52A10,10,0,0,1,174,55.47,12.24,12.24,0,0,1,168.75,56.59Zm1.83-8.16a6,6,0,0,0,4.67-1.92A6.88,6.88,0,0,0,177,41.64a7.57,7.57,0,0,0-.8-3.54A5.84,5.84,0,0,0,174,35.7a7,7,0,0,0-6.68,0,6.18,6.18,0,0,0-2.3,2.4,7,7,0,0,0-.86,3.54,7.17,7.17,0,0,0,.83,3.49,6.23,6.23,0,0,0,2.3,2.42A6.3,6.3,0,0,0,170.58,48.43ZM176.67,56V48.26l1.35-7-1.35-7v-7h8.86V56Z"/><path class="cls-1" d="M191.91,56V13.1h9V56Zm18.37,0-10-14.89,10-13.83h10.11L208.27,42.82l.3-3.72L220.92,56Z"/><path class="cls-1" d="M234.92,56.59a13,13,0,0,1-7.06-2,13.82,13.82,0,0,1-4.9-5.32,15.9,15.9,0,0,1-1.81-7.68A16,16,0,0,1,223,34a13.82,13.82,0,0,1,4.9-5.32,13,13,0,0,1,7.06-1.95,12,12,0,0,1,5.23,1.12A10.12,10.12,0,0,1,244,30.92a8.41,8.41,0,0,1,1.66,4.52v12.4A8.43,8.43,0,0,1,244,52.36a10,10,0,0,1-3.81,3.11A12.24,12.24,0,0,1,234.92,56.59Zm1.83-8.16a6,6,0,0,0,4.67-1.92,6.88,6.88,0,0,0,1.77-4.87,7.57,7.57,0,0,0-.79-3.54,5.92,5.92,0,0,0-2.25-2.4,7,7,0,0,0-6.68,0,6.25,6.25,0,0,0-2.3,2.4,7.14,7.14,0,0,0-.86,3.54,7.29,7.29,0,0,0,.83,3.49,6.23,6.23,0,0,0,2.3,2.42A6.33,6.33,0,0,0,236.75,48.43ZM242.84,56V48.26l1.36-7-1.36-7v-7h8.86V56Z"/><path class="cls-2" d="M258.91,56V14.28h9.27V56Zm6.26,0V47.84h10.34a14,14,0,0,0,6.62-1.5,10.37,10.37,0,0,0,4.37-4.4A14.5,14.5,0,0,0,288,35.08a13.88,13.88,0,0,0-1.57-6.79,10.82,10.82,0,0,0-4.37-4.37,13.46,13.46,0,0,0-6.59-1.54H264.88v-8.1h10.75a24.51,24.51,0,0,1,8.71,1.51,20.9,20.9,0,0,1,7,4.31,19.62,19.62,0,0,1,4.6,6.62,21.14,21.14,0,0,1,1.63,8.42,21.17,21.17,0,0,1-1.63,8.39,19.34,19.34,0,0,1-4.57,6.62,21.05,21.05,0,0,1-7,4.31A23.74,23.74,0,0,1,275.75,56Z"/><path class="cls-2" d="M316.81,56.65a17.49,17.49,0,0,1-8.3-1.92,14.34,14.34,0,0,1-5.7-5.35,14.65,14.65,0,0,1-2.07-7.74,14.62,14.62,0,0,1,7.56-13.06,15.85,15.85,0,0,1,7.86-1.95,15,15,0,0,1,7.5,1.83,13.46,13.46,0,0,1,5.12,5.09A14.68,14.68,0,0,1,330.64,41a15.69,15.69,0,0,1-.09,1.63,18.78,18.78,0,0,1-.33,2l-24.75.06v-6.2l20.91-.06-3.9,2.6a10.91,10.91,0,0,0-.77-4.11,5.34,5.34,0,0,0-2.09-2.48,6.38,6.38,0,0,0-3.4-.85,6.82,6.82,0,0,0-3.69,1,6.51,6.51,0,0,0-2.43,2.75,9.86,9.86,0,0,0-.85,4.31,9.47,9.47,0,0,0,.91,4.34,6.54,6.54,0,0,0,2.6,2.78,7.87,7.87,0,0,0,4,1,9.63,9.63,0,0,0,3.84-.74,8.42,8.42,0,0,0,3-2.22l5,5a13.47,13.47,0,0,1-5.14,3.72A17.38,17.38,0,0,1,316.81,56.65Z"/><path class="cls-2" d="M343.58,56,331.4,27.28h9.75l8.28,23.93h-4.26l8.27-23.93H363L350.84,56Z"/><path class="cls-1" d="M46.62,0H43.53S37.09,24.3,27.68,36.87c0,0,8.52,4.53,12.87,20.67h6.07Z"/><polygon class="cls-1" points="46.62 59.86 40.79 59.86 40.79 61.41 46.62 69.75 46.62 59.86"/><path class="cls-3" d="M49.6,0h3.1s6.43,24.3,15.84,36.87c0,0-8.51,4.53-12.86,20.67H49.6Z"/><polygon class="cls-3" points="49.6 59.86 55.44 59.86 55.44 61.41 49.6 69.75 49.6 59.86"/><path class="cls-1" d="M18.48,69Q11.49,69,8,65.3T5.16,54.4L6.08,44a6.14,6.14,0,0,0-.59-4c-.55-.81-1.61-1.21-3.16-1.21H0V30.67H2.33c1.55,0,2.61-.41,3.16-1.25a6.12,6.12,0,0,0,.59-3.91L5.16,15.35Q4.5,8.2,8,4.49T18.48.78h4.83V9H19.73c-2.33,0-3.89.5-4.66,1.49s-1.08,2.56-.92,4.67l.75,8.74a17.3,17.3,0,0,1-.29,5.91,7.22,7.22,0,0,1-2.66,4,16.36,16.36,0,0,1-5.87,2.59V33.25A15.3,15.3,0,0,1,12,35.62a7.08,7.08,0,0,1,2.66,4,17.3,17.3,0,0,1,.29,5.91l-.75,9c-.11,2.17.21,3.73,1,4.7s2.29,1.46,4.62,1.46h3.58V69Z"/><path class="cls-2" d="M77.74,69H72.83V60.64h3.58c2.33,0,3.89-.48,4.66-1.46s1.09-2.53.92-4.7l-.75-9a18.4,18.4,0,0,1,.38-5.91,7.12,7.12,0,0,1,2.62-4,14.82,14.82,0,0,1,5.83-2.37v3.17a15.81,15.81,0,0,1-5.83-2.59,7.26,7.26,0,0,1-2.62-4,18.4,18.4,0,0,1-.38-5.91L82,15.19q.33-3.16-.87-4.67T76.41,9H72.83V.78h4.91q7,0,10.49,3.71t2.83,10.86l-1,10.16a5.91,5.91,0,0,0,.62,3.91,3.63,3.63,0,0,0,3.2,1.25h2.34v8.16H93.89A3.69,3.69,0,0,0,90.69,40a5.93,5.93,0,0,0-.62,4L91,54.4q.66,7.24-2.79,10.9T77.74,69Z"/></g></g></svg>