<svg xmlns="http://www.w3.org/2000/svg" viewBox="0 0 127.32 128.62"><defs><style>.cls-1{fill:#efaabf;}.cls-2{fill:#eea2b7;}</style></defs><g id="Layer_2" data-name="Layer 2"><g id="Layer_1-2" data-name="Layer 1"><path class="cls-1" d="M76,85.17c-5.54,0-8.64-3-9-8.49a19.6,19.6,0,0,1,3.67-13.19c2.69-3.63,6.67-4.14,9.46-.91,4.32,5,6,10.84,3.9,17.33C82.87,83.53,80.13,85.14,76,85.17Z"/><path class="cls-1" d="M41.77,75.06a16.72,16.72,0,0,1,3.72-11.78c2.71-3.63,7-3.87,9.77-.25C59,67.92,60.58,73.5,58.84,79.61c-1.15,4-5.06,6-10.14,5.52a7.93,7.93,0,0,1-6.91-7.22A21.07,21.07,0,0,1,41.77,75.06Z"/><path class="cls-2" d="M107.75,36.28c.51-1.66,1.27-2.79,2.33-1.14,2.28,3.5,11.75.87,5.79-9.82-5.44-9.75-16,.09-17.84,1.9C89,20,78.53,15,67.84,13.93a5.72,5.72,0,0,0,1-2.48A4.06,4.06,0,0,0,66,7.37a22.85,22.85,0,0,0-4.47-.9c.59-.75,1.59-1.26,2.58-2.3S65.94,1.38,65,0c-.41,2.07-2.28,2.11-4,2.67A7.83,7.83,0,0,0,58.43,4a4.05,4.05,0,0,0-.91,5.36c1.55,2.1,4.44,2,6.6,2.51-.1.25-.24.51-.35.75s-.48.73-.73,1.09c-11.92.18-23.68,5.52-33.75,13.51-1.82-1.81-12.4-11.65-17.84-1.9C5.49,36,15,38.64,17.24,35.14c1.06-1.65,1.82-.52,2.33,1.14C7.77,49.11,0,65.14,0,78.12c0,26.07,13.14,50.5,63.66,50.5s63.66-24.43,63.66-50.5C127.32,65.14,119.55,49.11,107.75,36.28ZM61.27,7.14s-.05,0,0-.07,0-.05,0-.1l.06-.11s0,0,0,.06C61.35,7.16,61.26,7.21,61.27,7.14Zm2.94,4.27a.24.24,0,0,1,0-.17.06.06,0,0,0,0,.07s0,.1,0,.16v0S64.21,11.43,64.21,11.41Zm-.55,94c-30.1,0-37.93-14.56-37.93-30.09S44.39,36.92,63.66,36.92s37.93,22.86,37.93,38.39S93.76,105.4,63.66,105.4Z"/></g></g></svg>