<svg xmlns="http://www.w3.org/2000/svg" viewBox="0 0 115.54 83.75"><defs><style>.cls-1{fill:#192e5f;}.cls-2{fill:#29afad;}.cls-3{fill:#27a2ab;}</style></defs><g id="Layer_2" data-name="Layer 2"><g id="Layer_1-2" data-name="Layer 1"><path class="cls-1" d="M56,0H52.26s-7.72,29.18-19,44.27c0,0,10.23,5.44,15.45,24.82H56Z"/><polygon class="cls-1" points="55.98 71.88 48.97 71.88 48.97 73.74 55.98 83.75 55.98 71.88"/><path class="cls-2" d="M59.56,0h3.72S71,29.18,82.3,44.27c0,0-10.23,5.44-15.45,24.82H59.56Z"/><polygon class="cls-2" points="59.56 71.88 66.57 71.88 66.57 73.74 59.56 83.75 59.56 71.88"/><path class="cls-1" d="M22.19,82.81q-8.4,0-12.59-4.4T6.2,65.32l1.1-12.5c.2-2.2,0-3.78-.7-4.75s-1.94-1.45-3.8-1.45H0V36.83H2.8c1.86,0,3.13-.5,3.8-1.5a7.42,7.42,0,0,0,.7-4.7L6.2,18.43q-.81-8.6,3.4-13T22.19.94H28v9.9h-4.3q-4.2,0-5.6,1.8T17,18.23l.9,10.5a20.74,20.74,0,0,1-.35,7.1,8.68,8.68,0,0,1-3.2,4.8,19.74,19.74,0,0,1-7,3.09V39.93a18,18,0,0,1,7,2.84,8.46,8.46,0,0,1,3.2,4.75,20.76,20.76,0,0,1,.35,7.1L17,65.42c-.13,2.59.25,4.48,1.15,5.64s2.75,1.75,5.55,1.75H28v10Z"/><path class="cls-3" d="M93.35,82.81h-5.9v-10h4.3c2.8,0,4.66-.58,5.6-1.75s1.3-3,1.1-5.64l-.9-10.8a22.38,22.38,0,0,1,.45-7.1,8.57,8.57,0,0,1,3.14-4.75,17.64,17.64,0,0,1,7-2.84v3.79a19.26,19.26,0,0,1-7-3.09A8.8,8.8,0,0,1,98,35.83a22.36,22.36,0,0,1-.45-7.1l.9-10.5q.39-3.8-1-5.59t-5.65-1.8h-4.3V.94h5.9q8.4,0,12.59,4.45t3.4,13l-1.2,12.2q-.3,3.19.75,4.7c.7,1,2,1.5,3.85,1.5h2.8v9.79h-2.8c-1.87,0-3.15.49-3.85,1.45s-1,2.55-.75,4.75l1.1,12.5q.8,8.69-3.35,13.09T93.35,82.81Z"/></g></g></svg>